<svg width="341" height="494" viewBox="0 0 341 494" fill="none" xmlns="http://www.w3.org/2000/svg">
<path d="M264.376 34.2541C264.376 25.1501 269.432 17.2212 276.93 12.9638V-13.4146C255.27 -7.95123 239.266 11.3196 239.266 34.2541C239.266 57.1887 255.27 76.4595 276.93 81.9228V55.5445C269.434 51.287 264.376 43.3581 264.376 34.2541Z" fill="#DEE1E9"/>
<path d="M340.489 34.2541C340.489 11.3196 324.484 -7.95123 302.824 -13.4146V12.9638C310.323 17.2212 315.379 25.1501 315.379 34.2541C315.379 43.3581 310.323 51.287 302.824 55.5445V81.9228C324.484 76.4595 340.489 57.1887 340.489 34.2541Z" fill="#DEE1E9"/>
<path d="M289.877 10.3551C294.6 10.3551 299.013 11.5699 302.825 13.6566V-12.5806V-26.3616H289.877H276.93V-12.5806V13.6566C280.743 11.5699 285.157 10.3551 289.877 10.3551Z" fill="#CACDD2"/>
<path d="M290.142 59.3312C285.515 59.3312 281.192 58.1161 277.458 56.0287V82.2737V310.209C277.458 338.95 259.949 365.193 232.846 377.088L189.135 396.265L142.46 416.742L120.673 426.3L60.3616 452.759L70.8577 475.042L75.3622 473.067L110.558 457.626L170.394 431.375L243.336 399.374C279.474 383.522 302.825 348.526 302.825 310.209V82.2737V56.0287C299.092 58.1161 294.768 59.3312 290.142 59.3312Z" fill="#CACDD2"/>
<path d="M32.7172 459.336C30.1088 460.472 27.8057 462.157 25.9813 464.263L0.334351 493.874H40.3039C43.0253 493.874 45.7149 493.316 48.1897 492.239L50.0951 491.408L74.4856 480.785L72.3448 476.304L71.8088 475.184L61.2796 453.15L58.8048 447.971L32.7172 459.336Z" fill="#DEE1E9"/>
<path d="M277.813 13.4593C270.256 17.7353 265.16 25.6989 265.16 34.8426C265.16 43.9864 270.256 51.95 277.813 56.226C281.538 58.3332 285.851 59.5597 290.466 59.5597C295.081 59.5597 299.394 58.3332 303.119 56.226C310.676 51.95 315.772 43.9864 315.772 34.8426C315.772 25.6989 310.676 17.7353 303.119 13.4593C299.394 11.3521 295.081 10.1255 290.466 10.1255C285.851 10.1255 281.539 11.3521 277.813 13.4593Z" fill="#7D787D"/>
</svg>
